<!DOCTYPE svg PUBLIC "-//W3C//DTD SVG 1.1//EN" "http://www.w3.org/Graphics/SVG/1.1/DTD/svg11.dtd">
<!-- Uploaded to: SVG Repo, www.svgrepo.com, Transformed by: SVG Repo Mixer Tools -->
<svg fill="#ffffff" height="800px" width="800px" version="1.1" id="Layer_1" xmlns="http://www.w3.org/2000/svg" xmlns:xlink="http://www.w3.org/1999/xlink" viewBox="0 0 512 512" xml:space="preserve">
<g id="SVGRepo_bgCarrier" stroke-width="0"/>
<g id="SVGRepo_tracerCarrier" stroke-linecap="round" stroke-linejoin="round"/>
<g id="SVGRepo_iconCarrier"> <g> <g> <g> <path d="M256,0C114.618,0,0,114.618,0,256s114.618,256,256,256s256-114.618,256-256S397.382,0,256,0z M256,469.333 c-117.818,0-213.333-95.515-213.333-213.333S138.182,42.667,256,42.667S469.333,138.182,469.333,256S373.818,469.333,256,469.333 z"/> <path d="M384,298.667H128c-11.782,0-21.333,9.551-21.333,21.333c0,77.189,65.715,128,149.333,128s149.333-50.811,149.333-128 C405.333,308.218,395.782,298.667,384,298.667z M256,405.333c-52.965,0-93.164-25.064-103.851-64h207.701 C349.164,380.269,308.965,405.333,256,405.333z"/> <path d="M134.248,249.752c8.331,8.331,21.839,8.331,30.17,0l42.667-42.667c8.331-8.331,8.331-21.839,0-30.17l-42.667-42.667 c-8.331-8.331-21.839-8.331-30.17,0s-8.331,21.839,0,30.17L161.83,192l-27.582,27.582 C125.917,227.913,125.917,241.42,134.248,249.752z"/> <path d="M347.582,249.752c8.331,8.331,21.839,8.331,30.17,0c8.331-8.331,8.331-21.839,0-30.17L350.17,192l27.582-27.582 c8.331-8.331,8.331-21.839,0-30.17c-8.331-8.331-21.839-8.331-30.17,0l-42.667,42.667c-8.331,8.331-8.331,21.839,0,30.17 L347.582,249.752z"/> </g> </g> </g> </g>
</svg>